<?xml version="1.0" encoding="UTF-8" standalone="no"?>
<!DOCTYPE svg PUBLIC "-//W3C//DTD SVG 1.1//EN"
 "http://www.w3.org/Graphics/SVG/1.1/DTD/svg11.dtd">
<!-- Generated by graphviz version 2.43.0 (0)
 -->
<!-- Title: %3 Pages: 1 -->
<svg width="333pt" height="98pt"
 viewBox="0.00 0.00 333.00 98.00" xmlns="http://www.w3.org/2000/svg" xmlns:xlink="http://www.w3.org/1999/xlink">
<g id="graph0" class="graph" transform="scale(1 1) rotate(0) translate(4 94)">
<title>%3</title>
<polygon fill="white" stroke="transparent" points="-4,4 -4,-94 329,-94 329,4 -4,4"/>
<!-- 0 -->
<g id="node1" class="node">
<title>0</title>
<ellipse fill="none" stroke="black" cx="18" cy="-45" rx="18" ry="18"/>
<text text-anchor="middle" x="18" y="-41.3" font-family="Times,serif" font-size="14.00" fill="red">0</text>
</g>
<!-- 1 -->
<g id="node2" class="node">
<title>1</title>
<ellipse fill="none" stroke="black" cx="144" cy="-72" rx="18" ry="18"/>
<text text-anchor="middle" x="144" y="-68.3" font-family="Times,serif" font-size="14.00" fill="red">1</text>
</g>
<!-- 0&#45;&gt;1 -->
<g id="edge1" class="edge">
<title>0&#45;&gt;1</title>
<path fill="none" stroke="black" d="M35.72,-48.64C56.34,-53.13 91.64,-60.82 116.09,-66.14"/>
<polygon fill="black" stroke="black" points="115.63,-69.62 126.15,-68.33 117.12,-62.78 115.63,-69.62"/>
<text text-anchor="middle" x="81" y="-67.8" font-family="Times,serif" font-size="14.00">OTHER</text>
</g>
<!-- 4 -->
<g id="node5" class="node">
<title>4</title>
<ellipse fill="none" stroke="black" cx="144" cy="-18" rx="18" ry="18"/>
<text text-anchor="middle" x="144" y="-14.3" font-family="Times,serif" font-size="14.00" fill="red">4</text>
</g>
<!-- 0&#45;&gt;4 -->
<g id="edge4" class="edge">
<title>0&#45;&gt;4</title>
<path fill="none" stroke="black" d="M35.21,-38.82C41.07,-36.76 47.77,-34.58 54,-33 74.6,-27.77 98.35,-23.87 116.13,-21.36"/>
<polygon fill="black" stroke="black" points="116.66,-24.82 126.1,-20.01 115.72,-17.89 116.66,-24.82"/>
<text text-anchor="middle" x="81" y="-36.8" font-family="Times,serif" font-size="14.00">A</text>
</g>
<!-- 2 -->
<g id="node3" class="node">
<title>2</title>
<ellipse fill="none" stroke="black" cx="227" cy="-72" rx="18" ry="18"/>
<text text-anchor="middle" x="227" y="-68.3" font-family="Times,serif" font-size="14.00" fill="red">2</text>
</g>
<!-- 1&#45;&gt;2 -->
<g id="edge2" class="edge">
<title>1&#45;&gt;2</title>
<path fill="none" stroke="black" d="M162.18,-72C172.81,-72 186.69,-72 198.8,-72"/>
<polygon fill="black" stroke="black" points="198.85,-75.5 208.85,-72 198.85,-68.5 198.85,-75.5"/>
<text text-anchor="middle" x="185.5" y="-75.8" font-family="Times,serif" font-size="14.00">C</text>
</g>
<!-- 3 -->
<g id="node4" class="node">
<title>3</title>
<ellipse fill="none" stroke="black" cx="307" cy="-45" rx="18" ry="18"/>
<text text-anchor="middle" x="307" y="-41.3" font-family="Times,serif" font-size="14.00" fill="red">3</text>
</g>
<!-- 2&#45;&gt;3 -->
<g id="edge3" class="edge">
<title>2&#45;&gt;3</title>
<path fill="none" stroke="black" d="M244.16,-66.41C254.62,-62.79 268.46,-57.99 280.4,-53.86"/>
<polygon fill="black" stroke="black" points="281.55,-57.17 289.86,-50.59 279.26,-50.55 281.55,-57.17"/>
<text text-anchor="middle" x="267" y="-62.8" font-family="Times,serif" font-size="14.00">ε</text>
</g>
<!-- 5 -->
<g id="node6" class="node">
<title>5</title>
<ellipse fill="none" stroke="black" cx="227" cy="-18" rx="18" ry="18"/>
<text text-anchor="middle" x="227" y="-14.3" font-family="Times,serif" font-size="14.00" fill="red">5</text>
</g>
<!-- 4&#45;&gt;5 -->
<g id="edge5" class="edge">
<title>4&#45;&gt;5</title>
<path fill="none" stroke="black" d="M162.18,-18C172.81,-18 186.69,-18 198.8,-18"/>
<polygon fill="black" stroke="black" points="198.85,-21.5 208.85,-18 198.85,-14.5 198.85,-21.5"/>
<text text-anchor="middle" x="185.5" y="-21.8" font-family="Times,serif" font-size="14.00">B</text>
</g>
<!-- 5&#45;&gt;3 -->
<g id="edge6" class="edge">
<title>5&#45;&gt;3</title>
<path fill="none" stroke="black" d="M244.16,-23.59C254.62,-27.21 268.46,-32.01 280.4,-36.14"/>
<polygon fill="black" stroke="black" points="279.26,-39.45 289.86,-39.41 281.55,-32.83 279.26,-39.45"/>
<text text-anchor="middle" x="267" y="-35.8" font-family="Times,serif" font-size="14.00">ε</text>
</g>
</g>
</svg>
