<?xml version="1.0" encoding="UTF-8" standalone="no"?>
<!DOCTYPE svg PUBLIC "-//W3C//DTD SVG 1.1//EN"
 "http://www.w3.org/Graphics/SVG/1.1/DTD/svg11.dtd">
<!-- Generated by graphviz version 2.43.0 (0)
 -->
<!-- Title: %3 Pages: 1 -->
<svg width="287pt" height="98pt"
 viewBox="0.00 0.00 287.00 98.00" xmlns="http://www.w3.org/2000/svg" xmlns:xlink="http://www.w3.org/1999/xlink">
<g id="graph0" class="graph" transform="scale(1 1) rotate(0) translate(4 94)">
<title>%3</title>
<polygon fill="white" stroke="transparent" points="-4,4 -4,-94 283,-94 283,4 -4,4"/>
<!-- 0 -->
<g id="node1" class="node">
<title>0</title>
<ellipse fill="none" stroke="black" cx="18" cy="-45" rx="18" ry="18"/>
<text text-anchor="middle" x="18" y="-41.3" font-family="Times,serif" font-size="14.00" fill="red">0</text>
</g>
<!-- 1 -->
<g id="node2" class="node">
<title>1</title>
<ellipse fill="none" stroke="black" cx="178" cy="-72" rx="18" ry="18"/>
<text text-anchor="middle" x="178" y="-68.3" font-family="Times,serif" font-size="14.00" fill="red">1</text>
</g>
<!-- 0&#45;&gt;1 -->
<g id="edge1" class="edge">
<title>0&#45;&gt;1</title>
<path fill="none" stroke="black" d="M35.91,-47.89C63.23,-52.56 117.32,-61.8 150.01,-67.39"/>
<polygon fill="black" stroke="black" points="149.77,-70.9 160.21,-69.13 150.95,-64 149.77,-70.9"/>
<text text-anchor="middle" x="98" y="-68.8" font-family="Times,serif" font-size="14.00">A</text>
</g>
<!-- 3 -->
<g id="node4" class="node">
<title>3</title>
<ellipse fill="none" stroke="black" cx="178" cy="-18" rx="18" ry="18"/>
<text text-anchor="middle" x="178" y="-14.3" font-family="Times,serif" font-size="14.00" fill="red">3</text>
</g>
<!-- 0&#45;&gt;3 -->
<g id="edge3" class="edge">
<title>0&#45;&gt;3</title>
<path fill="none" stroke="black" d="M34.78,-38.21C40.71,-35.91 47.57,-33.54 54,-32 86.23,-24.3 124.25,-20.8 149.4,-19.23"/>
<polygon fill="black" stroke="black" points="149.87,-22.71 159.66,-18.65 149.48,-15.72 149.87,-22.71"/>
<text text-anchor="middle" x="98" y="-35.8" font-family="Times,serif" font-size="14.00">ANY&#45;OTHER</text>
</g>
<!-- 2 -->
<g id="node3" class="node">
<title>2</title>
<ellipse fill="none" stroke="black" cx="261" cy="-72" rx="18" ry="18"/>
<text text-anchor="middle" x="261" y="-68.3" font-family="Times,serif" font-size="14.00" fill="red">2</text>
</g>
<!-- 1&#45;&gt;2 -->
<g id="edge2" class="edge">
<title>1&#45;&gt;2</title>
<path fill="none" stroke="black" d="M196.18,-72C206.81,-72 220.69,-72 232.8,-72"/>
<polygon fill="black" stroke="black" points="232.85,-75.5 242.85,-72 232.85,-68.5 232.85,-75.5"/>
<text text-anchor="middle" x="219.5" y="-75.8" font-family="Times,serif" font-size="14.00">B</text>
</g>
<!-- 4 -->
<g id="node5" class="node">
<title>4</title>
<ellipse fill="none" stroke="black" cx="261" cy="-18" rx="18" ry="18"/>
<text text-anchor="middle" x="261" y="-14.3" font-family="Times,serif" font-size="14.00" fill="red">4</text>
</g>
<!-- 3&#45;&gt;4 -->
<g id="edge4" class="edge">
<title>3&#45;&gt;4</title>
<path fill="none" stroke="black" d="M196.18,-18C206.81,-18 220.69,-18 232.8,-18"/>
<polygon fill="black" stroke="black" points="232.85,-21.5 242.85,-18 232.85,-14.5 232.85,-21.5"/>
<text text-anchor="middle" x="219.5" y="-21.8" font-family="Times,serif" font-size="14.00">C</text>
</g>
</g>
</svg>
