<?xml version="1.0" encoding="UTF-8" standalone="no"?>
<!DOCTYPE svg PUBLIC "-//W3C//DTD SVG 1.1//EN"
 "http://www.w3.org/Graphics/SVG/1.1/DTD/svg11.dtd">
<!-- Generated by graphviz version 2.43.0 (0)
 -->
<!-- Title: %3 Pages: 1 -->
<svg width="459pt" height="249pt"
 viewBox="0.00 0.00 459.00 249.00" xmlns="http://www.w3.org/2000/svg" xmlns:xlink="http://www.w3.org/1999/xlink">
<g id="graph0" class="graph" transform="scale(1 1) rotate(0) translate(4 245)">
<title>%3</title>
<polygon fill="white" stroke="transparent" points="-4,4 -4,-245 455,-245 455,4 -4,4"/>
<!-- 0 -->
<g id="node1" class="node">
<title>0</title>
<ellipse fill="none" stroke="black" cx="18" cy="-97" rx="18" ry="18"/>
<text text-anchor="middle" x="18" y="-93.3" font-family="Times,serif" font-size="14.00" fill="red">0</text>
</g>
<!-- 1 -->
<g id="node2" class="node">
<title>1</title>
<ellipse fill="none" stroke="black" cx="122" cy="-18" rx="18" ry="18"/>
<text text-anchor="middle" x="122" y="-14.3" font-family="Times,serif" font-size="14.00" fill="red">1</text>
</g>
<!-- 0&#45;&gt;1 -->
<g id="edge1" class="edge">
<title>0&#45;&gt;1</title>
<path fill="none" stroke="black" d="M32.76,-86.35C49.79,-73.15 79.01,-50.52 99.13,-34.94"/>
<polygon fill="black" stroke="black" points="101.37,-37.63 107.14,-28.74 97.09,-32.09 101.37,-37.63"/>
<text text-anchor="middle" x="70" y="-72.8" font-family="Times,serif" font-size="14.00">e &#45; e</text>
</g>
<!-- 5 -->
<g id="node6" class="node">
<title>5</title>
<ellipse fill="none" stroke="black" cx="122" cy="-97" rx="18" ry="18"/>
<text text-anchor="middle" x="122" y="-93.3" font-family="Times,serif" font-size="14.00" fill="red">5</text>
</g>
<!-- 0&#45;&gt;5 -->
<g id="edge14" class="edge">
<title>0&#45;&gt;5</title>
<path fill="none" stroke="black" d="M36.3,-97C52.08,-97 75.64,-97 93.91,-97"/>
<polygon fill="black" stroke="black" points="93.95,-100.5 103.95,-97 93.95,-93.5 93.95,-100.5"/>
<text text-anchor="middle" x="70" y="-100.8" font-family="Times,serif" font-size="14.00">b &#45; d</text>
</g>
<!-- 6 -->
<g id="node7" class="node">
<title>6</title>
<ellipse fill="none" stroke="black" cx="122" cy="-213" rx="18" ry="18"/>
<text text-anchor="middle" x="122" y="-209.3" font-family="Times,serif" font-size="14.00" fill="red">6</text>
</g>
<!-- 0&#45;&gt;6 -->
<g id="edge18" class="edge">
<title>0&#45;&gt;6</title>
<path fill="none" stroke="black" d="M30.7,-110.31C48.3,-130.32 81.75,-168.36 102.62,-192.1"/>
<polygon fill="black" stroke="black" points="100.2,-194.65 109.44,-199.85 105.46,-190.03 100.2,-194.65"/>
<text text-anchor="middle" x="70" y="-175.8" font-family="Times,serif" font-size="14.00">a &#45; a</text>
</g>
<!-- 2 -->
<g id="node3" class="node">
<title>2</title>
<ellipse fill="none" stroke="black" cx="225" cy="-90" rx="18" ry="18"/>
<text text-anchor="middle" x="225" y="-86.3" font-family="Times,serif" font-size="14.00" fill="red">2</text>
</g>
<!-- 1&#45;&gt;2 -->
<g id="edge2" class="edge">
<title>1&#45;&gt;2</title>
<path fill="none" stroke="black" d="M137.04,-28.01C153.68,-39.87 181.63,-59.8 201.34,-73.85"/>
<polygon fill="black" stroke="black" points="199.58,-76.89 209.75,-79.84 203.64,-71.19 199.58,-76.89"/>
<text text-anchor="middle" x="173.5" y="-67.8" font-family="Times,serif" font-size="14.00">e &#45; e</text>
</g>
<!-- 3 -->
<g id="node4" class="node">
<title>3</title>
<ellipse fill="none" stroke="black" cx="329" cy="-147" rx="18" ry="18"/>
<text text-anchor="middle" x="329" y="-143.3" font-family="Times,serif" font-size="14.00" fill="red">3</text>
</g>
<!-- 1&#45;&gt;3 -->
<g id="edge12" class="edge">
<title>1&#45;&gt;3</title>
<path fill="none" stroke="black" d="M140.21,-19.71C164.36,-22.67 209.15,-30.24 243,-48 275.05,-64.82 300.21,-99.21 314.59,-122.69"/>
<polygon fill="black" stroke="black" points="311.63,-124.57 319.74,-131.39 317.66,-121 311.63,-124.57"/>
<text text-anchor="middle" x="225" y="-51.8" font-family="Times,serif" font-size="14.00">b &#45; d</text>
</g>
<!-- 4 -->
<g id="node5" class="node">
<title>4</title>
<ellipse fill="none" stroke="black" cx="433" cy="-77" rx="18" ry="18"/>
<text text-anchor="middle" x="433" y="-73.3" font-family="Times,serif" font-size="14.00" fill="red">4</text>
</g>
<!-- 1&#45;&gt;4 -->
<g id="edge13" class="edge">
<title>1&#45;&gt;4</title>
<path fill="none" stroke="black" d="M140.1,-17.64C153.43,-17.45 172.4,-17.36 189,-18 282.33,-21.58 312.91,-7.36 397,-48 402.24,-50.53 407.37,-54.01 412.01,-57.68"/>
<polygon fill="black" stroke="black" points="409.89,-60.48 419.76,-64.34 414.45,-55.17 409.89,-60.48"/>
<text text-anchor="middle" x="277" y="-21.8" font-family="Times,serif" font-size="14.00">a &#45; a</text>
</g>
<!-- 2&#45;&gt;2 -->
<g id="edge3" class="edge">
<title>2&#45;&gt;2</title>
<path fill="none" stroke="black" d="M216.37,-105.92C214.11,-116.15 216.99,-126 225,-126 230.26,-126 233.3,-121.76 234.14,-115.95"/>
<polygon fill="black" stroke="black" points="237.63,-115.73 233.63,-105.92 230.64,-116.08 237.63,-115.73"/>
<text text-anchor="middle" x="225" y="-129.8" font-family="Times,serif" font-size="14.00">e &#45; e</text>
</g>
<!-- 2&#45;&gt;3 -->
<g id="edge4" class="edge">
<title>2&#45;&gt;3</title>
<path fill="none" stroke="black" d="M242.97,-92.54C257.15,-95.23 277.49,-100.46 293,-110 299.63,-114.08 305.83,-119.72 311.13,-125.38"/>
<polygon fill="black" stroke="black" points="308.52,-127.71 317.73,-132.95 313.79,-123.11 308.52,-127.71"/>
<text text-anchor="middle" x="277" y="-113.8" font-family="Times,serif" font-size="14.00">b &#45; d</text>
</g>
<!-- 2&#45;&gt;4 -->
<g id="edge11" class="edge">
<title>2&#45;&gt;4</title>
<path fill="none" stroke="black" d="M241.94,-83.31C258.76,-76.63 286.21,-66.84 311,-63 343.4,-57.98 380.94,-64.17 405.51,-69.84"/>
<polygon fill="black" stroke="black" points="404.96,-73.31 415.51,-72.29 406.62,-66.51 404.96,-73.31"/>
<text text-anchor="middle" x="329" y="-66.8" font-family="Times,serif" font-size="14.00">a &#45; a</text>
</g>
<!-- 3&#45;&gt;2 -->
<g id="edge5" class="edge">
<title>3&#45;&gt;2</title>
<path fill="none" stroke="black" d="M311.1,-143.76C296.96,-140.52 276.64,-134.62 261,-125 254.9,-121.25 249.07,-116.23 243.97,-111.17"/>
<polygon fill="black" stroke="black" points="246.49,-108.74 237.08,-103.87 241.39,-113.55 246.49,-108.74"/>
<text text-anchor="middle" x="277" y="-141.8" font-family="Times,serif" font-size="14.00">e &#45; e</text>
</g>
<!-- 3&#45;&gt;3 -->
<g id="edge6" class="edge">
<title>3&#45;&gt;3</title>
<path fill="none" stroke="black" d="M320.02,-162.92C317.68,-173.15 320.67,-183 329,-183 334.47,-183 337.63,-178.76 338.5,-172.95"/>
<polygon fill="black" stroke="black" points="342,-172.72 337.98,-162.92 335.01,-173.09 342,-172.72"/>
<text text-anchor="middle" x="329" y="-186.8" font-family="Times,serif" font-size="14.00">b &#45; d</text>
</g>
<!-- 3&#45;&gt;4 -->
<g id="edge7" class="edge">
<title>3&#45;&gt;4</title>
<path fill="none" stroke="black" d="M347.05,-144.75C361.46,-142.17 382.1,-136.8 397,-126 405.8,-119.63 413.22,-110.35 418.93,-101.59"/>
<polygon fill="black" stroke="black" points="422.08,-103.14 424.25,-92.77 416.09,-99.52 422.08,-103.14"/>
<text text-anchor="middle" x="381" y="-143.8" font-family="Times,serif" font-size="14.00">a &#45; a</text>
</g>
<!-- 4&#45;&gt;2 -->
<g id="edge8" class="edge">
<title>4&#45;&gt;2</title>
<path fill="none" stroke="black" d="M414.98,-78.07C379.32,-80.32 296.46,-85.55 253.28,-88.28"/>
<polygon fill="black" stroke="black" points="252.97,-84.79 243.21,-88.91 253.41,-91.78 252.97,-84.79"/>
<text text-anchor="middle" x="329" y="-87.8" font-family="Times,serif" font-size="14.00">e &#45; e</text>
</g>
<!-- 4&#45;&gt;3 -->
<g id="edge9" class="edge">
<title>4&#45;&gt;3</title>
<path fill="none" stroke="black" d="M415.52,-82.13C401.28,-87.07 380.58,-95.49 365,-107 358.22,-112.01 351.82,-118.55 346.39,-124.87"/>
<polygon fill="black" stroke="black" points="343.66,-122.68 340.08,-132.65 349.1,-127.09 343.66,-122.68"/>
<text text-anchor="middle" x="381" y="-110.8" font-family="Times,serif" font-size="14.00">b &#45; d</text>
</g>
<!-- 4&#45;&gt;4 -->
<g id="edge10" class="edge">
<title>4&#45;&gt;4</title>
<path fill="none" stroke="black" d="M424.02,-92.92C421.68,-103.15 424.67,-113 433,-113 438.47,-113 441.63,-108.76 442.5,-102.95"/>
<polygon fill="black" stroke="black" points="446,-102.72 441.98,-92.92 439.01,-103.09 446,-102.72"/>
<text text-anchor="middle" x="433" y="-116.8" font-family="Times,serif" font-size="14.00">a &#45; a</text>
</g>
<!-- 5&#45;&gt;2 -->
<g id="edge15" class="edge">
<title>5&#45;&gt;2</title>
<path fill="none" stroke="black" d="M140.13,-95.81C155.59,-94.74 178.58,-93.15 196.59,-91.9"/>
<polygon fill="black" stroke="black" points="197.05,-95.38 206.78,-91.19 196.56,-88.39 197.05,-95.38"/>
<text text-anchor="middle" x="173.5" y="-97.8" font-family="Times,serif" font-size="14.00">e &#45; e</text>
</g>
<!-- 5&#45;&gt;3 -->
<g id="edge16" class="edge">
<title>5&#45;&gt;3</title>
<path fill="none" stroke="black" d="M136.29,-108C152.09,-120.42 179.75,-140.18 207,-150 243.08,-163 255.02,-162.32 293,-157 295.93,-156.59 298.97,-155.99 301.96,-155.29"/>
<polygon fill="black" stroke="black" points="303.08,-158.62 311.82,-152.64 301.26,-151.86 303.08,-158.62"/>
<text text-anchor="middle" x="225" y="-162.8" font-family="Times,serif" font-size="14.00">b &#45; d</text>
</g>
<!-- 5&#45;&gt;4 -->
<g id="edge17" class="edge">
<title>5&#45;&gt;4</title>
<path fill="none" stroke="black" d="M138.6,-88.96C163.61,-76.62 214.6,-53.73 261,-47 300.75,-41.23 388.38,-55.32 397,-58 400.9,-59.21 404.86,-60.88 408.65,-62.72"/>
<polygon fill="black" stroke="black" points="407.12,-65.87 417.58,-67.51 410.43,-59.7 407.12,-65.87"/>
<text text-anchor="middle" x="277" y="-50.8" font-family="Times,serif" font-size="14.00">a &#45; a</text>
</g>
<!-- 6&#45;&gt;2 -->
<g id="edge19" class="edge">
<title>6&#45;&gt;2</title>
<path fill="none" stroke="black" d="M134.19,-199.37C151.64,-178.13 185.45,-136.94 206.25,-111.62"/>
<polygon fill="black" stroke="black" points="209.11,-113.64 212.76,-103.69 203.7,-109.2 209.11,-113.64"/>
<text text-anchor="middle" x="173.5" y="-172.8" font-family="Times,serif" font-size="14.00">e &#45; e</text>
</g>
<!-- 6&#45;&gt;3 -->
<g id="edge20" class="edge">
<title>6&#45;&gt;3</title>
<path fill="none" stroke="black" d="M140.11,-211.07C171.58,-207.06 240.25,-196.09 293,-172 297.6,-169.9 302.21,-167.16 306.51,-164.27"/>
<polygon fill="black" stroke="black" points="308.74,-166.98 314.79,-158.28 304.64,-161.31 308.74,-166.98"/>
<text text-anchor="middle" x="225" y="-202.8" font-family="Times,serif" font-size="14.00">b &#45; d</text>
</g>
<!-- 6&#45;&gt;4 -->
<g id="edge21" class="edge">
<title>6&#45;&gt;4</title>
<path fill="none" stroke="black" d="M139.76,-216.85C178.44,-224.86 276.09,-239.97 347,-207 388.92,-187.51 412.82,-135.82 424.03,-103.8"/>
<polygon fill="black" stroke="black" points="427.4,-104.75 427.23,-94.16 420.75,-102.55 427.4,-104.75"/>
<text text-anchor="middle" x="277" y="-229.8" font-family="Times,serif" font-size="14.00">a &#45; a</text>
</g>
</g>
</svg>
