<?xml version="1.0" encoding="UTF-8" standalone="no"?>
<!DOCTYPE svg PUBLIC "-//W3C//DTD SVG 1.1//EN"
 "http://www.w3.org/Graphics/SVG/1.1/DTD/svg11.dtd">
<!-- Generated by graphviz version 2.43.0 (0)
 -->
<!-- Title: %3 Pages: 1 -->
<svg width="896pt" height="123pt"
 viewBox="0.00 0.00 896.50 123.00" xmlns="http://www.w3.org/2000/svg" xmlns:xlink="http://www.w3.org/1999/xlink">
<g id="graph0" class="graph" transform="scale(1 1) rotate(0) translate(4 119)">
<title>%3</title>
<polygon fill="white" stroke="transparent" points="-4,4 -4,-119 892.5,-119 892.5,4 -4,4"/>
<!-- description -->
<g id="node1" class="node">
<title>description</title>
<polygon fill="lightyellow" stroke="lightyellow" points="199,-36 0,-36 0,0 199,0 199,-36"/>
<text text-anchor="middle" x="99.5" y="-14.3" font-family="Times,serif" font-size="14.00" fill="blue">(or (seq any&#45;char z) hello)</text>
</g>
<!-- 0 -->
<g id="node2" class="node">
<title>0</title>
<ellipse fill="none" stroke="black" cx="99.5" cy="-72" rx="18" ry="18"/>
<text text-anchor="middle" x="99.5" y="-68.3" font-family="Times,serif" font-size="14.00" fill="blue">0</text>
</g>
<!-- 1 -->
<g id="node3" class="node">
<title>1</title>
<ellipse fill="none" stroke="black" cx="261" cy="-97" rx="18" ry="18"/>
<text text-anchor="middle" x="261" y="-93.3" font-family="Times,serif" font-size="14.00" fill="blue">1</text>
</g>
<!-- 0&#45;&gt;1 -->
<g id="edge1" class="edge">
<title>0&#45;&gt;1</title>
<path fill="none" stroke="black" d="M117.57,-74.68C145.15,-79 199.75,-87.56 232.76,-92.73"/>
<polygon fill="black" stroke="black" points="232.63,-96.25 243.05,-94.34 233.72,-89.34 232.63,-96.25"/>
<text text-anchor="middle" x="221" y="-93.8" font-family="Times,serif" font-size="14.00">ε</text>
</g>
<!-- 8 -->
<g id="node10" class="node">
<title>8</title>
<ellipse fill="none" stroke="black" cx="261" cy="-43" rx="18" ry="18"/>
<text text-anchor="middle" x="261" y="-39.3" font-family="Times,serif" font-size="14.00" fill="blue">8</text>
</g>
<!-- 0&#45;&gt;8 -->
<g id="edge8" class="edge">
<title>0&#45;&gt;8</title>
<path fill="none" stroke="black" d="M117.27,-68.95C144.84,-63.94 199.98,-53.91 233.07,-47.9"/>
<polygon fill="black" stroke="black" points="233.76,-51.33 242.98,-46.1 232.51,-44.44 233.76,-51.33"/>
<text text-anchor="middle" x="221" y="-54.8" font-family="Times,serif" font-size="14.00">ε</text>
</g>
<!-- 2 -->
<g id="node4" class="node">
<title>2</title>
<ellipse fill="none" stroke="black" cx="434" cy="-97" rx="18" ry="18"/>
<text text-anchor="middle" x="434" y="-93.3" font-family="Times,serif" font-size="14.00" fill="blue">2</text>
</g>
<!-- 1&#45;&gt;2 -->
<g id="edge2" class="edge">
<title>1&#45;&gt;2</title>
<path fill="none" stroke="black" d="M279.02,-97C308.65,-97 369.94,-97 405.61,-97"/>
<polygon fill="black" stroke="black" points="405.79,-100.5 415.79,-97 405.79,-93.5 405.79,-100.5"/>
<text text-anchor="middle" x="347.5" y="-100.8" font-family="Times,serif" font-size="14.00">h</text>
</g>
<!-- 3 -->
<g id="node5" class="node">
<title>3</title>
<ellipse fill="none" stroke="black" cx="515" cy="-96" rx="18" ry="18"/>
<text text-anchor="middle" x="515" y="-92.3" font-family="Times,serif" font-size="14.00" fill="blue">3</text>
</g>
<!-- 2&#45;&gt;3 -->
<g id="edge3" class="edge">
<title>2&#45;&gt;3</title>
<path fill="none" stroke="black" d="M452.14,-96.78C462.29,-96.65 475.37,-96.49 486.88,-96.34"/>
<polygon fill="black" stroke="black" points="486.94,-99.84 496.89,-96.22 486.85,-92.84 486.94,-99.84"/>
<text text-anchor="middle" x="474.5" y="-99.8" font-family="Times,serif" font-size="14.00">e</text>
</g>
<!-- 4 -->
<g id="node6" class="node">
<title>4</title>
<ellipse fill="none" stroke="black" cx="632.5" cy="-96" rx="18" ry="18"/>
<text text-anchor="middle" x="632.5" y="-92.3" font-family="Times,serif" font-size="14.00" fill="blue">4</text>
</g>
<!-- 3&#45;&gt;4 -->
<g id="edge4" class="edge">
<title>3&#45;&gt;4</title>
<path fill="none" stroke="black" d="M533.04,-96C551.81,-96 582.24,-96 604.31,-96"/>
<polygon fill="black" stroke="black" points="604.38,-99.5 614.38,-96 604.38,-92.5 604.38,-99.5"/>
<text text-anchor="middle" x="573.75" y="-99.8" font-family="Times,serif" font-size="14.00">l</text>
</g>
<!-- 5 -->
<g id="node7" class="node">
<title>5</title>
<ellipse fill="none" stroke="black" cx="709.5" cy="-96" rx="18" ry="18"/>
<text text-anchor="middle" x="709.5" y="-92.3" font-family="Times,serif" font-size="14.00" fill="blue">5</text>
</g>
<!-- 4&#45;&gt;5 -->
<g id="edge5" class="edge">
<title>4&#45;&gt;5</title>
<path fill="none" stroke="black" d="M650.51,-96C659.56,-96 670.9,-96 681.15,-96"/>
<polygon fill="black" stroke="black" points="681.29,-99.5 691.29,-96 681.29,-92.5 681.29,-99.5"/>
<text text-anchor="middle" x="671" y="-99.8" font-family="Times,serif" font-size="14.00">l</text>
</g>
<!-- 6 -->
<g id="node8" class="node">
<title>6</title>
<ellipse fill="none" stroke="black" cx="790.5" cy="-93" rx="18" ry="18"/>
<text text-anchor="middle" x="790.5" y="-89.3" font-family="Times,serif" font-size="14.00" fill="blue">6</text>
</g>
<!-- 5&#45;&gt;6 -->
<g id="edge6" class="edge">
<title>5&#45;&gt;6</title>
<path fill="none" stroke="black" d="M727.64,-95.35C737.78,-94.96 750.86,-94.47 762.38,-94.03"/>
<polygon fill="black" stroke="black" points="762.53,-97.53 772.39,-93.65 762.26,-90.53 762.53,-97.53"/>
<text text-anchor="middle" x="750" y="-97.8" font-family="Times,serif" font-size="14.00">o</text>
</g>
<!-- 7 -->
<g id="node9" class="node">
<title>7</title>
<ellipse fill="lightgreen" stroke="black" cx="870.5" cy="-61" rx="18" ry="18"/>
<text text-anchor="middle" x="870.5" y="-57.3" font-family="Times,serif" font-size="14.00" fill="blue">7</text>
</g>
<!-- 6&#45;&gt;7 -->
<g id="edge7" class="edge">
<title>6&#45;&gt;7</title>
<path fill="none" stroke="black" d="M807.66,-86.37C818.19,-82.05 832.14,-76.32 844.13,-71.41"/>
<polygon fill="black" stroke="black" points="845.7,-74.55 853.62,-67.51 843.04,-68.07 845.7,-74.55"/>
<text text-anchor="middle" x="830.5" y="-80.8" font-family="Times,serif" font-size="14.00">ε</text>
</g>
<!-- 9 -->
<g id="node11" class="node">
<title>9</title>
<ellipse fill="none" stroke="black" cx="434" cy="-43" rx="18" ry="18"/>
<text text-anchor="middle" x="434" y="-39.3" font-family="Times,serif" font-size="14.00" fill="blue">9</text>
</g>
<!-- 8&#45;&gt;9 -->
<g id="edge9" class="edge">
<title>8&#45;&gt;9</title>
<path fill="none" stroke="black" d="M279.02,-43C308.65,-43 369.94,-43 405.61,-43"/>
<polygon fill="black" stroke="black" points="405.79,-46.5 415.79,-43 405.79,-39.5 405.79,-46.5"/>
<text text-anchor="middle" x="347.5" y="-46.8" font-family="Times,serif" font-size="14.00">&lt;ANY&#45;CHAR&gt;</text>
</g>
<!-- 10 -->
<g id="node12" class="node">
<title>10</title>
<ellipse fill="none" stroke="black" cx="573.75" cy="-45" rx="23" ry="23"/>
<text text-anchor="middle" x="573.75" y="-41.3" font-family="Times,serif" font-size="14.00" fill="blue">10</text>
</g>
<!-- 9&#45;&gt;10 -->
<g id="edge10" class="edge">
<title>9&#45;&gt;10</title>
<path fill="none" stroke="black" d="M452.17,-43.25C474.2,-43.57 512.86,-44.13 540.47,-44.53"/>
<polygon fill="black" stroke="black" points="540.76,-48.04 550.81,-44.68 540.86,-41.04 540.76,-48.04"/>
<text text-anchor="middle" x="474.5" y="-47.8" font-family="Times,serif" font-size="14.00">z</text>
</g>
<!-- 10&#45;&gt;7 -->
<g id="edge11" class="edge">
<title>10&#45;&gt;7</title>
<path fill="none" stroke="black" d="M596.69,-45C616,-45 644.86,-45 670,-45 670,-45 670,-45 791.5,-45 809.13,-45 828.56,-48.97 843.61,-52.96"/>
<polygon fill="black" stroke="black" points="842.69,-56.33 853.26,-55.67 844.58,-49.6 842.69,-56.33"/>
<text text-anchor="middle" x="709.5" y="-48.8" font-family="Times,serif" font-size="14.00">ε</text>
</g>
</g>
</svg>
