<?xml version="1.0" encoding="UTF-8" standalone="no"?>
<!DOCTYPE svg PUBLIC "-//W3C//DTD SVG 1.1//EN"
 "http://www.w3.org/Graphics/SVG/1.1/DTD/svg11.dtd">
<!-- Generated by graphviz version 2.43.0 (0)
 -->
<!-- Title: %3 Pages: 1 -->
<svg width="645pt" height="125pt"
 viewBox="0.00 0.00 645.00 125.00" xmlns="http://www.w3.org/2000/svg" xmlns:xlink="http://www.w3.org/1999/xlink">
<g id="graph0" class="graph" transform="scale(1 1) rotate(0) translate(4 121)">
<title>%3</title>
<polygon fill="white" stroke="transparent" points="-4,4 -4,-121 641,-121 641,4 -4,4"/>
<!-- description -->
<g id="node1" class="node">
<title>description</title>
<polygon fill="lightyellow" stroke="lightyellow" points="199,-36 0,-36 0,0 199,0 199,-36"/>
<text text-anchor="middle" x="99.5" y="-14.3" font-family="Times,serif" font-size="14.00" fill="blue">(or (seq any&#45;char z) hello)</text>
</g>
<!-- 0 -->
<g id="node2" class="node">
<title>0</title>
<ellipse fill="none" stroke="black" cx="99.5" cy="-72" rx="18" ry="18"/>
<text text-anchor="middle" x="99.5" y="-68.3" font-family="Times,serif" font-size="14.00" fill="blue">0</text>
</g>
<!-- 1 -->
<g id="node3" class="node">
<title>1</title>
<ellipse fill="none" stroke="black" cx="303" cy="-99" rx="18" ry="18"/>
<text text-anchor="middle" x="303" y="-95.3" font-family="Times,serif" font-size="14.00" fill="blue">1</text>
</g>
<!-- 0&#45;&gt;1 -->
<g id="edge1" class="edge">
<title>0&#45;&gt;1</title>
<path fill="none" stroke="black" d="M117.47,-74.37C140.15,-77.53 181.59,-83.28 217,-88 236.36,-90.58 258.21,-93.41 274.91,-95.55"/>
<polygon fill="black" stroke="black" points="274.7,-99.05 285.06,-96.85 275.59,-92.11 274.7,-99.05"/>
<text text-anchor="middle" x="242" y="-97.8" font-family="Times,serif" font-size="14.00">i &#45; max</text>
</g>
<!-- 0&#45;&gt;1 -->
<g id="edge9" class="edge">
<title>0&#45;&gt;1</title>
<path fill="none" stroke="black" d="M117.23,-67.81C148.02,-60.94 215.21,-49.84 267,-69 272.87,-71.17 278.41,-74.81 283.29,-78.82"/>
<polygon fill="black" stroke="black" points="281.07,-81.54 290.8,-85.73 285.81,-76.38 281.07,-81.54"/>
<text text-anchor="middle" x="242" y="-72.8" font-family="Times,serif" font-size="14.00">min &#45; g</text>
</g>
<!-- 3 -->
<g id="node5" class="node">
<title>3</title>
<ellipse fill="none" stroke="black" cx="303" cy="-34" rx="18" ry="18"/>
<text text-anchor="middle" x="303" y="-30.3" font-family="Times,serif" font-size="14.00" fill="blue">3</text>
</g>
<!-- 0&#45;&gt;3 -->
<g id="edge3" class="edge">
<title>0&#45;&gt;3</title>
<path fill="none" stroke="black" d="M117.24,-67.43C136.84,-62.08 170.28,-52.92 199,-45 207,-42.79 208.82,-41.41 217,-40 236.13,-36.7 257.99,-35.21 274.75,-34.54"/>
<polygon fill="black" stroke="black" points="275.07,-38.03 284.95,-34.2 274.84,-31.03 275.07,-38.03"/>
<text text-anchor="middle" x="242" y="-43.8" font-family="Times,serif" font-size="14.00">h</text>
</g>
<!-- 2 -->
<g id="node4" class="node">
<title>2</title>
<ellipse fill="lightgreen" stroke="black" cx="384" cy="-88" rx="18" ry="18"/>
<text text-anchor="middle" x="384" y="-84.3" font-family="Times,serif" font-size="14.00" fill="blue">2</text>
</g>
<!-- 1&#45;&gt;2 -->
<g id="edge2" class="edge">
<title>1&#45;&gt;2</title>
<path fill="none" stroke="black" d="M321.14,-96.61C331.29,-95.2 344.37,-93.38 355.88,-91.78"/>
<polygon fill="black" stroke="black" points="356.47,-95.23 365.89,-90.38 355.5,-88.29 356.47,-95.23"/>
<text text-anchor="middle" x="343.5" y="-96.8" font-family="Times,serif" font-size="14.00">z</text>
</g>
<!-- 3&#45;&gt;2 -->
<g id="edge8" class="edge">
<title>3&#45;&gt;2</title>
<path fill="none" stroke="black" d="M318.49,-43.9C330.18,-51.9 346.84,-63.28 360.3,-72.49"/>
<polygon fill="black" stroke="black" points="358.37,-75.4 368.6,-78.16 362.32,-69.63 358.37,-75.4"/>
<text text-anchor="middle" x="343.5" y="-65.8" font-family="Times,serif" font-size="14.00">z</text>
</g>
<!-- 4 -->
<g id="node6" class="node">
<title>4</title>
<ellipse fill="none" stroke="black" cx="384" cy="-23" rx="18" ry="18"/>
<text text-anchor="middle" x="384" y="-19.3" font-family="Times,serif" font-size="14.00" fill="blue">4</text>
</g>
<!-- 3&#45;&gt;4 -->
<g id="edge4" class="edge">
<title>3&#45;&gt;4</title>
<path fill="none" stroke="black" d="M320.19,-28.44C326.04,-26.68 332.75,-24.95 339,-24 344.34,-23.19 350.09,-22.75 355.61,-22.54"/>
<polygon fill="black" stroke="black" points="355.84,-26.04 365.78,-22.38 355.72,-19.04 355.84,-26.04"/>
<text text-anchor="middle" x="343.5" y="-27.8" font-family="Times,serif" font-size="14.00">e</text>
</g>
<!-- 5 -->
<g id="node7" class="node">
<title>5</title>
<ellipse fill="none" stroke="black" cx="461" cy="-23" rx="18" ry="18"/>
<text text-anchor="middle" x="461" y="-19.3" font-family="Times,serif" font-size="14.00" fill="blue">5</text>
</g>
<!-- 4&#45;&gt;5 -->
<g id="edge5" class="edge">
<title>4&#45;&gt;5</title>
<path fill="none" stroke="black" d="M402.02,-23C411.06,-23 422.4,-23 432.65,-23"/>
<polygon fill="black" stroke="black" points="432.79,-26.5 442.79,-23 432.79,-19.5 432.79,-26.5"/>
<text text-anchor="middle" x="422.5" y="-26.8" font-family="Times,serif" font-size="14.00">l</text>
</g>
<!-- 6 -->
<g id="node8" class="node">
<title>6</title>
<ellipse fill="none" stroke="black" cx="538" cy="-23" rx="18" ry="18"/>
<text text-anchor="middle" x="538" y="-19.3" font-family="Times,serif" font-size="14.00" fill="blue">6</text>
</g>
<!-- 5&#45;&gt;6 -->
<g id="edge6" class="edge">
<title>5&#45;&gt;6</title>
<path fill="none" stroke="black" d="M479.02,-23C488.06,-23 499.4,-23 509.65,-23"/>
<polygon fill="black" stroke="black" points="509.79,-26.5 519.79,-23 509.79,-19.5 509.79,-26.5"/>
<text text-anchor="middle" x="499.5" y="-26.8" font-family="Times,serif" font-size="14.00">l</text>
</g>
<!-- 7 -->
<g id="node9" class="node">
<title>7</title>
<ellipse fill="lightgreen" stroke="black" cx="619" cy="-23" rx="18" ry="18"/>
<text text-anchor="middle" x="619" y="-19.3" font-family="Times,serif" font-size="14.00" fill="blue">7</text>
</g>
<!-- 6&#45;&gt;7 -->
<g id="edge7" class="edge">
<title>6&#45;&gt;7</title>
<path fill="none" stroke="black" d="M556.14,-23C566.29,-23 579.37,-23 590.88,-23"/>
<polygon fill="black" stroke="black" points="590.89,-26.5 600.89,-23 590.89,-19.5 590.89,-26.5"/>
<text text-anchor="middle" x="578.5" y="-26.8" font-family="Times,serif" font-size="14.00">o</text>
</g>
</g>
</svg>
